<?xml version="1.0" encoding="utf-8"?>
<!-- Generator: Adobe Illustrator 26.0.1, SVG Export Plug-In . SVG Version: 6.00 Build 0)  -->
<svg version="1.1" xmlns="http://www.w3.org/2000/svg" xmlns:xlink="http://www.w3.org/1999/xlink"
	 viewBox="186.5 117.0 225.5 53.5" style="enable-background:new 0 0 612 792;" xml:space="preserve">
<style type="text/css">
	.st0{fill:#FFFFFF;}
	.st1{opacity:0.98;}
</style>
<g id="Layer_1">
	<g>
		<path class="st0" d="M207.6,156c-0.1,0-0.2,0-0.3-0.1l-13.5-9.2c-0.2-0.1-0.3-0.4-0.2-0.6s0.2-0.4,0.5-0.4l5.8-0.8
			c0.3,0,0.6,0.2,0.6,0.5c0,0.3-0.2,0.6-0.5,0.6l-4.4,0.6l12.1,8.3l29.1-5.1l-2-1.1c-0.3-0.1-0.4-0.5-0.2-0.7
			c0.1-0.3,0.5-0.4,0.7-0.2l3.4,1.9c0.2,0.1,0.3,0.3,0.3,0.6c0,0.2-0.2,0.4-0.4,0.4L207.6,156C207.6,156,207.6,156,207.6,156z"/>
	</g>
	<g>
		<g>
			<path class="st0" d="M214.4,150.7c-3.5,0-7-0.2-10.5-0.5c-0.1,0-0.3-0.1-0.3-0.2c-4-4.1-7.6-8.6-10.7-13.2
				c-0.1-0.2-0.1-0.4,0-0.6c0.1-0.2,0.4-0.3,0.6-0.2c1.7,0.4,3.4,0.8,5.1,1.2c0.3,0.1,0.5,0.3,0.4,0.6c-0.1,0.3-0.3,0.5-0.6,0.4
				c-1.3-0.3-2.5-0.5-3.8-0.8c2.9,4.1,6.1,8,9.7,11.7c10.9,1,21.9,0.4,32.6-1.8c-1-0.5-2.1-1-3.1-1.4c-0.3-0.1-0.4-0.5-0.2-0.7
				c0.1-0.3,0.5-0.4,0.7-0.2c1.5,0.7,3,1.4,4.6,2.1c0.2,0.1,0.4,0.3,0.3,0.6c0,0.2-0.2,0.4-0.4,0.5
				C230.7,149.8,222.6,150.7,214.4,150.7z"/>
		</g>
	</g>
	<g>
		<g>
			<path class="st0" d="M227.8,146.1c-9.9,0-19.8-2.1-28.6-6.2c-0.1-0.1-0.2-0.1-0.3-0.3c-2.3-5-4-10.3-4.8-15.7
				c0-0.2,0.1-0.4,0.3-0.6c0.2-0.1,0.4-0.1,0.6,0.1c7.8,6.4,18,10.6,28.6,11.7c0.1,0,0.2,0.1,0.3,0.1c4.4,3.7,9.5,6.7,15.1,9
				c0.2,0.1,0.4,0.3,0.3,0.6s-0.2,0.4-0.5,0.5C235.2,145.8,231.5,146.1,227.8,146.1z M199.8,139c11.3,5.2,24.3,7.1,37,5.4
				c-5-2.2-9.5-5-13.5-8.3c-10.3-1.1-20.1-5-27.9-11C196.3,129.9,197.7,134.6,199.8,139z"/>
		</g>
	</g>
	<g>
		<path class="st0" d="M207.6,158.8c-0.1,0-0.2,0-0.3-0.1l-13.5-9.2c-0.2-0.2-0.3-0.5-0.1-0.8c0.2-0.2,0.5-0.3,0.8-0.1l13.3,9.1
			l30.7-5.3c0.3-0.1,0.6,0.1,0.6,0.4c0.1,0.3-0.1,0.6-0.4,0.6L207.6,158.8C207.6,158.8,207.6,158.8,207.6,158.8z"/>
	</g>
	<g>
		<path class="st0" d="M207.6,161.6c-0.1,0-0.2,0-0.3-0.1l-13.5-9.2c-0.2-0.2-0.3-0.5-0.1-0.8c0.2-0.2,0.5-0.3,0.8-0.1l13.3,9.1
			l30.7-5.3c0.3-0.1,0.6,0.1,0.6,0.4c0.1,0.3-0.1,0.6-0.4,0.6L207.6,161.6C207.6,161.6,207.6,161.6,207.6,161.6z"/>
	</g>
	<g>
		<path class="st0" d="M207.6,164.3c-0.1,0-0.2,0-0.3-0.1l-13.5-9.2c-0.2-0.2-0.3-0.5-0.1-0.8c0.2-0.2,0.5-0.3,0.8-0.1l13.3,9.1
			l30.7-5.3c0.3-0.1,0.6,0.1,0.6,0.4c0.1,0.3-0.1,0.6-0.4,0.6L207.6,164.3C207.6,164.3,207.6,164.3,207.6,164.3z"/>
	</g>
</g>
<g id="Layer_2">
	<g>
		<g>
			<path class="st0" d="M294.9,162.4c-1.9-0.6-3.4-1.4-4.4-2.4l1.7-3.2c1.1,1,2.4,1.7,4,2.3c1.6,0.6,3.3,0.8,5,0.8
				c2.3,0,4.1-0.4,5.4-1.2c1.4-0.8,2-2,2-3.5c0-0.8-0.3-1.4-0.8-2s-1.2-0.9-1.9-1.3c-0.8-0.3-1.8-0.7-3.2-1.1
				c-1.8-0.5-3.2-1-4.3-1.5c-1.1-0.5-2-1.2-2.8-2.1c-0.8-0.9-1.2-2.2-1.2-3.7c0-1.7,0.5-3.2,1.5-4.5s2.3-2.3,4.1-3
				c1.7-0.7,3.7-1,6-1c1.7,0,3.3,0.2,4.9,0.6s2.9,1,4,1.7l-1.6,3.2c-1-0.7-2.2-1.3-3.5-1.7c-1.3-0.4-2.6-0.6-4-0.6
				c-2.3,0-4.1,0.4-5.4,1.3s-2,2.1-2,3.5c0,0.8,0.3,1.5,0.8,2.1s1.2,1,2,1.3c0.8,0.3,1.9,0.7,3.3,1.1c1.7,0.5,3.1,1,4.2,1.5
				c1.1,0.5,2,1.1,2.7,2c0.8,0.9,1.1,2.1,1.1,3.5c0,1.8-0.5,3.3-1.5,4.6c-1,1.3-2.4,2.3-4.1,3c-1.8,0.7-3.8,1-6.1,1
				C298.8,163.3,296.8,163,294.9,162.4z"/>
			<path class="st0" d="M317,153.7v0.2c0,1.9,0.6,3.4,1.7,4.4c1.1,1,2.8,1.5,5,1.5c1.3,0,2.5-0.2,3.6-0.7c1.1-0.4,2.1-1,2.8-1.8
				l1.6,2.7c-1,0.9-2.3,1.7-3.8,2.2s-3,0.8-4.7,0.8c-2.1,0-3.8-0.4-5.3-1.1s-2.7-1.8-3.5-3.2c-0.8-1.4-1.2-3-1.2-4.8
				c0-2.3,0.5-4.4,1.5-6.3c1-1.9,2.4-3.3,4.2-4.4c1.8-1.1,3.8-1.6,6.1-1.6c2.8,0,5.1,0.8,6.8,2.4s2.5,3.8,2.5,6.6
				c0,0.8-0.1,1.8-0.3,2.8H317z M320.1,146.6c-1.3,1.1-2.2,2.5-2.7,4.3h13.5c0.1-1.9-0.4-3.3-1.5-4.4c-1.1-1-2.6-1.6-4.5-1.6
				C323.1,145.1,321.5,145.6,320.1,146.6z"/>
			<path class="st0" d="M343.7,142.7c1.3-0.5,3-0.8,4.9-0.8l-0.7,3.7c-0.2,0-0.6,0-1,0c-4.3,0-7,2.3-7.9,7l-2.1,10.5h-3.8l4.1-20.9
				h3.6l-0.6,3.1C341.2,144.1,342.4,143.2,343.7,142.7z"/>
			<path class="st0" d="M371,142.1L357.7,163h-3.9l-5-20.9h3.8l3.9,16.8l10.7-16.8H371z"/>
			<path class="st0" d="M370.3,153.7v0.2c0,1.9,0.6,3.4,1.7,4.4c1.1,1,2.8,1.5,5,1.5c1.3,0,2.5-0.2,3.6-0.7c1.1-0.4,2.1-1,2.8-1.8
				l1.6,2.7c-1,0.9-2.3,1.7-3.8,2.2s-3,0.8-4.7,0.8c-2.1,0-3.8-0.4-5.3-1.1s-2.7-1.8-3.5-3.2c-0.8-1.4-1.2-3-1.2-4.8
				c0-2.3,0.5-4.4,1.5-6.3c1-1.9,2.4-3.3,4.2-4.4c1.8-1.1,3.8-1.6,6.1-1.6c2.8,0,5.1,0.8,6.8,2.4s2.5,3.8,2.5,6.6
				c0,0.8-0.1,1.8-0.3,2.8H370.3z M373.4,146.6c-1.3,1.1-2.2,2.5-2.7,4.3h13.5c0.1-1.9-0.4-3.3-1.5-4.4c-1.1-1-2.6-1.6-4.5-1.6
				C376.4,145.1,374.8,145.6,373.4,146.6z"/>
			<path class="st0" d="M389.8,162.6c-1.6-0.4-2.8-1-3.7-1.7l1.7-3c0.8,0.7,1.9,1.2,3.2,1.6c1.3,0.4,2.7,0.6,4.1,0.6
				c1.8,0,3.2-0.3,4.1-0.8c0.9-0.5,1.4-1.3,1.4-2.3c0-0.8-0.4-1.4-1.1-1.7c-0.8-0.3-1.9-0.7-3.5-1c-1.5-0.3-2.7-0.6-3.6-1
				c-0.9-0.3-1.7-0.9-2.4-1.6c-0.7-0.7-1-1.7-1-2.9c0-1.4,0.4-2.6,1.2-3.6s1.9-1.8,3.3-2.4c1.4-0.6,3.1-0.8,5-0.8
				c1.4,0,2.8,0.2,4.1,0.5c1.3,0.3,2.4,0.8,3.2,1.4l-1.5,3c-0.8-0.6-1.8-1-2.8-1.2c-1.1-0.3-2.2-0.4-3.3-0.4c-1.7,0-3,0.3-3.9,0.8
				c-0.9,0.6-1.4,1.3-1.4,2.3c0,0.8,0.4,1.4,1.1,1.8c0.8,0.4,1.9,0.7,3.6,1c1.4,0.3,2.6,0.6,3.6,0.9c0.9,0.3,1.7,0.8,2.3,1.5
				c0.6,0.7,1,1.7,1,2.9c0,2.1-0.9,3.8-2.6,5c-1.8,1.2-4.1,1.8-7,1.8C393,163.2,391.4,163,389.8,162.6z"/>
		</g>
	</g>
	<g class="st1">
		<path class="st0" d="M256.3,162.9c-2.1,0-4.1-0.4-5.9-1.1c-1.8-0.7-3.4-1.7-4.7-3c-1.3-1.3-2.3-2.8-3.1-4.5
			c-0.7-1.7-1.1-3.6-1.1-5.6s0.4-3.9,1.1-5.6c0.7-1.7,1.8-3.2,3.1-4.5c1.3-1.3,2.9-2.3,4.7-3c1.8-0.7,3.8-1.1,5.9-1.1
			c2.1,0,4,0.3,5.8,1c1.8,0.7,3.3,1.7,4.7,3c1.3,1.3,2.4,2.8,3.1,4.5c0.7,1.7,1.1,3.6,1.1,5.6c0,2.1-0.4,3.9-1.1,5.6
			c-0.7,1.7-1.8,3.2-3.1,4.5c-1.3,1.3-2.9,2.3-4.7,3C260.4,162.5,258.4,162.9,256.3,162.9z M256.3,159.3c1.5,0,2.9-0.3,4.2-0.8
			c1.3-0.5,2.4-1.3,3.4-2.2c1-1,1.7-2.1,2.2-3.4c0.5-1.3,0.8-2.7,0.8-4.2s-0.3-2.9-0.8-4.2c-0.5-1.3-1.3-2.4-2.2-3.4
			c-1-1-2.1-1.7-3.4-2.2c-1.3-0.5-2.7-0.8-4.2-0.8c-1.6,0-3,0.3-4.3,0.8c-1.3,0.5-2.4,1.3-3.4,2.2c-1,1-1.7,2.1-2.3,3.4
			c-0.5,1.3-0.8,2.7-0.8,4.2s0.3,2.9,0.8,4.2c0.5,1.3,1.3,2.4,2.3,3.4c1,1,2.1,1.7,3.4,2.2C253.4,159.1,254.8,159.3,256.3,159.3z"/>
		<path class="st0" d="M283.6,162.9c-2.1,0-4-0.3-5.8-1c-1.8-0.7-3.3-1.7-4.6-3c-1.3-1.3-2.3-2.8-3.1-4.5c-0.7-1.7-1.1-3.6-1.1-5.6
			c0-2.1,0.4-3.9,1.1-5.6c0.7-1.7,1.8-3.2,3.1-4.5c1.3-1.3,2.9-2.3,4.6-3s3.7-1,5.8-1c2.1,0,4.1,0.4,5.9,1.1
			c1.8,0.7,3.3,1.8,4.6,3.2l-2.6,2.5c-1.1-1.1-2.2-1.9-3.6-2.5c-1.3-0.5-2.7-0.8-4.2-0.8c-1.6,0-3,0.3-4.3,0.8
			c-1.3,0.5-2.5,1.3-3.5,2.2c-1,0.9-1.7,2.1-2.3,3.4c-0.5,1.3-0.8,2.7-0.8,4.2s0.3,2.9,0.8,4.2c0.5,1.3,1.3,2.4,2.3,3.4
			c1,0.9,2.1,1.7,3.5,2.2c1.3,0.5,2.8,0.8,4.3,0.8c1.5,0,2.9-0.3,4.2-0.8c1.3-0.5,2.5-1.4,3.6-2.5l2.6,2.5c-1.3,1.4-2.8,2.5-4.6,3.2
			C287.8,162.5,285.8,162.9,283.6,162.9z"/>
	</g>
</g>
</svg>
